<svg id="Layer_1" data-name="Layer 1" xmlns="http://www.w3.org/2000/svg" viewBox="0 0 91.28 45.65"><defs><style>.cls-1,.cls-2,.cls-4,.cls-5{fill:#fff;}.cls-2,.cls-3,.cls-4,.cls-5{isolation:isolate;}.cls-2,.cls-4,.cls-5{font-size:8.9px;font-family:ProximaNovaA-Semibold, Proxima Nova Alt;font-weight:600;}.cls-2{letter-spacing:0.2em;}.cls-4{letter-spacing:0.2em;}.cls-5{letter-spacing:0.14em;}</style></defs><title>1650 logo_white</title><path class="cls-1" d="M23.53,33V20.46l-3.45,3.42L16.6,20.24l7.78-7.63h5.31V33Z"/><path class="cls-1" d="M31.89,22.8c0-6.81,4.37-10.53,10.68-10.53A11.87,11.87,0,0,1,48.92,14L46.38,18.8a6,6,0,0,0-3.76-1.1c-2,0-4.45,1.07-4.45,3.54v.06a6,6,0,0,1,4.73-2.07c3.66,0,7.2,2.41,7.2,6.74s-3.63,7.33-8.45,7.33C34.91,33.34,31.89,28.8,31.89,22.8Zm11.9,3.42c0-1.32-1.61-1.77-2.83-1.77a4.53,4.53,0,0,0-2.87.82,2.76,2.76,0,0,0,3.11,2.59c1.56,0,2.59-.75,2.59-1.6Z"/><path class="cls-1" d="M51.38,30.47l3.3-4.34a8.38,8.38,0,0,0,5.16,1.77c2,0,2.87-.82,2.87-1.67s-.8-1.68-2.69-1.68A5.12,5.12,0,0,0,56.24,26L52,25V12.61H67.56V18h-9.4v2.86a6.18,6.18,0,0,1,4.22-1.55,6.45,6.45,0,0,1,6.56,6.34V26c0,4.49-3.35,7.39-9.06,7.39A12.47,12.47,0,0,1,51.38,30.47Z"/><path class="cls-1" d="M70.07,22.8c0-5.53,3-10.5,9-10.5s9,5,9,10.5-3,10.53-9,10.53S70.07,28.33,70.07,22.8Zm11.87,0c0-3.45-.88-5.07-2.83-5.07s-2.84,1.62-2.84,5.07.88,5.09,2.84,5.09S81.94,26.26,81.94,22.8Z"/><path class="cls-1" d="M45.64,10.21V0H0V45.65H45.64V35.44H42.56v7.12H3.08V3.09H42.56v7.12Z"/><text class="cls-2" transform="translate(46.46 8.64)">THE</text><g class="cls-3"><text class="cls-4" transform="translate(46.46 42.11)">DIGI</text><text class="cls-5" transform="translate(70.9 42.11)">T</text><text class="cls-2" transform="translate(77.23 42.11)">AL</text></g></svg>