<svg id="Layer_1" data-name="Layer 1" xmlns="http://www.w3.org/2000/svg" viewBox="0 0 840.51 290.72"><defs><style>.cls-1{fill:#fff;}</style></defs><title>ac3 logo - 2</title><path class="cls-1" d="M688.48,1086.13l40.13-55.21h74q10.42,0,18.14.64-4.5-5.77-10.44-14.61t-11.39-16.53l-38.53-56.83-100.8,142.54H580.93L718.66,891.91a74.23,74.23,0,0,1,17-16.7q10.27-7.38,26-7.38,15.08,0,25.2,6.9a65.7,65.7,0,0,1,17.17,17.18l134.2,194.22Z" transform="translate(-580.93 -867.83)"/><path class="cls-1" d="M1170.87,1030.92l-42.7,55.21H1020.31a155.06,155.06,0,0,1-51.69-8.34q-23.76-8.36-40.93-23a106.16,106.16,0,0,1-27-34.67,97.78,97.78,0,0,1-9.79-43.5,93.83,93.83,0,0,1,9.79-42.86,101.64,101.64,0,0,1,27-33.38q17.17-14,40.93-21.51a170,170,0,0,1,51.69-7.55h150.56l-42.7,55.86H1020.31a78.93,78.93,0,0,0-25,3.85,61.27,61.27,0,0,0-19.91,10.76,50.5,50.5,0,0,0-13.16,16.53,47.27,47.27,0,0,0,13,58.43,62.46,62.46,0,0,0,20.07,10.43,81.57,81.57,0,0,0,25,3.7Z" transform="translate(-580.93 -867.83)"/><path class="cls-1" d="M1187.41,1030.92h147q10.9,0,15.73-3.86t4.81-11.23q0-7.07-4.81-10.76t-15.73-3.69H1205.71l34.35-45.91h95.35a26.74,26.74,0,0,0,13-3.05q5.61-3,5.62-11.39,0-8-5.78-10.92a28.24,28.24,0,0,0-12.84-2.89H1155.63l42.7-55.86h134.19a151.88,151.88,0,0,1,34.83,3.69q15.57,3.71,26.65,11.24a52.34,52.34,0,0,1,17,18.62Q1417,916,1417,930.75a51.53,51.53,0,0,1-2.57,17,50.82,50.82,0,0,1-6.58,13,38.11,38.11,0,0,1-9.31,9.31,45.26,45.26,0,0,1-10.75,5.62,47.47,47.47,0,0,1,23.92,16.37q9.78,12.21,9.79,31.46a71.86,71.86,0,0,1-4.18,24.88,46.35,46.35,0,0,1-14.12,19.75q-10,8.34-26.81,13.16t-42.21,4.81H1145Z" transform="translate(-580.93 -867.83)"/><path class="cls-1" d="M820.77,1112.09h9.77l17.08,45.45h-9.46l-3.75-10.86H816.9l-3.75,10.86h-9.46Zm10.85,26.72-4.06-11.36-1.65-5.52h-.51l-1.65,5.52-4.06,11.36Z" transform="translate(-580.93 -867.83)"/><path class="cls-1" d="M851.93,1157.54v-45.45h8.32v45.45Z" transform="translate(-580.93 -867.83)"/><path class="cls-1" d="M867.35,1157.54v-45.45h8.32v45.45Z" transform="translate(-580.93 -867.83)"/><path class="cls-1" d="M936.22,1150.24a22.63,22.63,0,0,1-7.93,6.19,25.4,25.4,0,0,1-19.65.28,24.07,24.07,0,0,1-12.53-31.26,23,23,0,0,1,12.53-12.53,23.89,23.89,0,0,1,9.43-1.84,22.83,22.83,0,0,1,9.61,1.9,22.46,22.46,0,0,1,7.4,5.52l-6,5.84a16.22,16.22,0,0,0-4.67-3.74,13.16,13.16,0,0,0-6.25-1.4,16,16,0,0,0-6,1.11,14.44,14.44,0,0,0-4.85,3.14,14.81,14.81,0,0,0-3.27,4.92,17.77,17.77,0,0,0,0,12.89,14.67,14.67,0,0,0,3.27,4.91,14.31,14.31,0,0,0,4.85,3.15,16,16,0,0,0,6,1.11,14.25,14.25,0,0,0,6.76-1.56,16.51,16.51,0,0,0,5.24-4.41Z" transform="translate(-580.93 -867.83)"/><path class="cls-1" d="M960,1154.24h-.51a14,14,0,0,1-3.52,3,10,10,0,0,1-5.3,1.27,12.86,12.86,0,0,1-4.54-.79,11.71,11.71,0,0,1-3.71-2.19,9.69,9.69,0,0,1-2.48-3.37,10.39,10.39,0,0,1-.89-4.31,9.65,9.65,0,0,1,1-4.35,9.83,9.83,0,0,1,2.66-3.33,12.13,12.13,0,0,1,4-2.13,17,17,0,0,1,5.05-.73,21.65,21.65,0,0,1,5,.48,24.87,24.87,0,0,1,3.24,1v-1a5.08,5.08,0,0,0-2-4.09,7.43,7.43,0,0,0-4.89-1.62,9.12,9.12,0,0,0-7.3,3.62l-6-4.13q5-6.23,13.52-6.22,7.25,0,11.05,3.4t3.81,10.06v18.66H960Zm0-9.33a17.41,17.41,0,0,0-3-1.12,13.4,13.4,0,0,0-3.39-.41,7.22,7.22,0,0,0-4.6,1.3,4,4,0,0,0-1.62,3.21,3.62,3.62,0,0,0,1.55,3,5.91,5.91,0,0,0,3.59,1.14,7.52,7.52,0,0,0,3-.61,7.67,7.67,0,0,0,2.38-1.58,7.11,7.11,0,0,0,1.52-2.29A6.91,6.91,0,0,0,960,1144.91Z" transform="translate(-580.93 -867.83)"/><path class="cls-1" d="M974.75,1126.44h7.8v4.31h.51a8,8,0,0,1,1.52-2.09,11.08,11.08,0,0,1,2.13-1.66,11.92,11.92,0,0,1,2.54-1.14,8.86,8.86,0,0,1,2.7-.44,10,10,0,0,1,2.82.35,7.26,7.26,0,0,1,2,.92l-2.22,7.43a7.76,7.76,0,0,0-1.68-.61,9.76,9.76,0,0,0-2.26-.22,6.87,6.87,0,0,0-5.49,2.55,9.1,9.1,0,0,0-1.52,2.84,11.22,11.22,0,0,0-.54,3.54v15.32h-8.31Z" transform="translate(-580.93 -867.83)"/><path class="cls-1" d="M1021.84,1153.79h-.51a9.49,9.49,0,0,1-3.55,3.37,11.77,11.77,0,0,1-6,1.39,13.39,13.39,0,0,1-5.68-1.24,15.12,15.12,0,0,1-4.76-3.42,16.51,16.51,0,0,1-3.27-5.24,19.11,19.11,0,0,1,0-13.33,16.51,16.51,0,0,1,3.27-5.24,15.27,15.27,0,0,1,4.76-3.42,13.39,13.39,0,0,1,5.68-1.24,11.77,11.77,0,0,1,6,1.4,9.39,9.39,0,0,1,3.55,3.36h.51l-.51-4.44v-13.65h8.32v45.45h-7.81Zm-8.31-2.92a8.35,8.35,0,0,0,3.14-.6,7.72,7.72,0,0,0,2.63-1.75,8.58,8.58,0,0,0,1.84-2.79,10.37,10.37,0,0,0,0-7.49,8.58,8.58,0,0,0-1.84-2.79,8,8,0,0,0-2.63-1.75,8.35,8.35,0,0,0-3.14-.6,8.05,8.05,0,0,0-3.15.63,8.43,8.43,0,0,0-2.63,1.78,8.86,8.86,0,0,0-1.84,2.79,10,10,0,0,0,0,7.37,8.75,8.75,0,0,0,1.84,2.79,8.43,8.43,0,0,0,2.63,1.78A8.05,8.05,0,0,0,1013.53,1150.87Z" transform="translate(-580.93 -867.83)"/><path class="cls-1" d="M1058.84,1157.54v-37.33h-12.69v-8.12h34v8.12h-12.7v37.33Z" transform="translate(-580.93 -867.83)"/><path class="cls-1" d="M1081.38,1126.44h7.8v4.31h.51a8,8,0,0,1,1.52-2.09,11.08,11.08,0,0,1,2.13-1.66,11.92,11.92,0,0,1,2.54-1.14,8.86,8.86,0,0,1,2.7-.44,10,10,0,0,1,2.82.35,7.26,7.26,0,0,1,2,.92l-2.22,7.43a7.76,7.76,0,0,0-1.68-.61,9.76,9.76,0,0,0-2.26-.22,6.87,6.87,0,0,0-5.49,2.55,9.1,9.1,0,0,0-1.52,2.84,11.22,11.22,0,0,0-.54,3.54v15.32h-8.31Z" transform="translate(-580.93 -867.83)"/><path class="cls-1" d="M1125.11,1154.24h-.51a14,14,0,0,1-3.52,3,10,10,0,0,1-5.3,1.27,12.86,12.86,0,0,1-4.54-.79,11.71,11.71,0,0,1-3.71-2.19,9.69,9.69,0,0,1-2.48-3.37,10.39,10.39,0,0,1-.89-4.31,9.78,9.78,0,0,1,.95-4.35,10,10,0,0,1,2.67-3.33,12,12,0,0,1,4-2.13,16.93,16.93,0,0,1,5-.73,21.65,21.65,0,0,1,5,.48,24.87,24.87,0,0,1,3.24,1v-1a5.08,5.08,0,0,0-2-4.09,7.43,7.43,0,0,0-4.89-1.62,9.11,9.11,0,0,0-7.3,3.62l-6-4.13q4.95-6.23,13.52-6.22,7.24,0,11,3.4t3.8,10.06v18.66h-8.18Zm0-9.33a17.41,17.41,0,0,0-3-1.12,13.46,13.46,0,0,0-3.39-.41,7.25,7.25,0,0,0-4.61,1.3,4,4,0,0,0-1.61,3.21,3.6,3.6,0,0,0,1.55,3,5.91,5.91,0,0,0,3.59,1.14,7.44,7.44,0,0,0,3-.61,7.55,7.55,0,0,0,2.38-1.58,7.08,7.08,0,0,0,2.07-5Z" transform="translate(-580.93 -867.83)"/><path class="cls-1" d="M1162.75,1153.79h-.51a9.52,9.52,0,0,1-3.56,3.37,11.71,11.71,0,0,1-6,1.39,13.36,13.36,0,0,1-5.68-1.24,15,15,0,0,1-4.76-3.42,16.16,16.16,0,0,1-3.27-5.24,19,19,0,0,1,0-13.33,16.16,16.16,0,0,1,3.27-5.24,15.16,15.16,0,0,1,4.76-3.42,13.36,13.36,0,0,1,5.68-1.24,11.71,11.71,0,0,1,6,1.4,9.42,9.42,0,0,1,3.56,3.36h.51l-.51-4.44v-13.65h8.31v45.45h-7.8Zm-8.32-2.92a8.31,8.31,0,0,0,3.14-.6,7.67,7.67,0,0,0,2.64-1.75,8.75,8.75,0,0,0,1.84-2.79,10.37,10.37,0,0,0,0-7.49,8.75,8.75,0,0,0-1.84-2.79,8,8,0,0,0-2.64-1.75,8.31,8.31,0,0,0-3.14-.6,8,8,0,0,0-3.14.63,8.32,8.32,0,0,0-2.63,1.78,8.72,8.72,0,0,0-1.85,2.79,10.19,10.19,0,0,0,0,7.37,8.61,8.61,0,0,0,1.85,2.79,8.32,8.32,0,0,0,2.63,1.78A8,8,0,0,0,1154.43,1150.87Z" transform="translate(-580.93 -867.83)"/><path class="cls-1" d="M1206.79,1150.05a17.45,17.45,0,0,1-5.8,6.15,16.13,16.13,0,0,1-8.92,2.35,17,17,0,0,1-6.57-1.24,15.6,15.6,0,0,1-5.24-3.46,15.86,15.86,0,0,1-3.46-5.23,17.39,17.39,0,0,1-1.23-6.63,17.07,17.07,0,0,1,1.2-6.38,16.15,16.15,0,0,1,8.48-8.86,15.55,15.55,0,0,1,6.5-1.33,16.88,16.88,0,0,1,6.67,1.24,13.65,13.65,0,0,1,4.88,3.42,14.86,14.86,0,0,1,3,5.18,20.17,20.17,0,0,1,1,6.47v.76a4.62,4.62,0,0,0-.06.7,3.77,3.77,0,0,0-.07.7h-23.42a8.75,8.75,0,0,0,1,3.27,7.92,7.92,0,0,0,2,2.28,7.62,7.62,0,0,0,2.57,1.34,10.19,10.19,0,0,0,2.86.41,8,8,0,0,0,4.72-1.3,9.55,9.55,0,0,0,3-3.27Zm-7.55-12.06a5.23,5.23,0,0,0-.54-1.84,6.38,6.38,0,0,0-1.4-1.91,7.27,7.27,0,0,0-2.28-1.46,8.47,8.47,0,0,0-3.27-.57,7.66,7.66,0,0,0-4.7,1.52,8.09,8.09,0,0,0-2.85,4.26Z" transform="translate(-580.93 -867.83)"/></svg>