<svg id="Layer_1" data-name="Layer 1" xmlns="http://www.w3.org/2000/svg" viewBox="0 0 319.12 502"><defs><style>.cls-1{fill:#1a3d59;}</style></defs><title>Bill Payment</title><path class="cls-1" d="M137.07,488.21a19.46,19.46,0,1,0-19-19.89v.44A19.25,19.25,0,0,0,137.07,488.21Zm0-26.91a7.47,7.47,0,1,1-7,7.9c0-.15,0-.3,0-.44a7.26,7.26,0,0,1,7-7.46Z" transform="translate(-96.44 -5)"/><path class="cls-1" d="M396.54,5H227.24a19,19,0,0,0-19,19V167.09L134,228.54a6,6,0,0,0-.45.42,37.65,37.65,0,0,0-10.85,26.52V428.92h-9.3a17,17,0,0,0-17,17V490a17,17,0,0,0,17,17H262.64a17,17,0,0,0,17-17V445.89a17,17,0,0,0-17-17h-3.73V391.29a37.9,37.9,0,0,0,31.85-37.37v-34.6H396.54a19.05,19.05,0,0,0,19-19V24A19,19,0,0,0,396.54,5ZM220.22,24a7,7,0,0,1,7-7H251.9a38.62,38.62,0,0,1-31.68,32Zm42.42,416.9a5,5,0,0,1,5,5V490a5,5,0,0,1-5,5H113.41a5,5,0,0,1-5-5V445.89a5,5,0,0,1,5-5Zm16.12-87a25.88,25.88,0,0,1-25.85,25.85,6,6,0,0,0-6,6v43.15H134.71V255.48a25.76,25.76,0,0,1,7.2-17.9l66.3-54.91v60.12L169.43,273.5a6,6,0,0,0,7.41,9.43l0,0,72.3-57.24,1.85,1.85a17.88,17.88,0,0,1,0,25.29h0l-33.78,33.78a6,6,0,0,0-1.75,3.9l-.42,7.37c0,.11,0,.23,0,.34a37.54,37.54,0,0,0,3.72,16.1,37.29,37.29,0,0,1-2.71,36.31,6,6,0,0,0-1,3.33v15.92a6,6,0,0,0,12,0V355.67a49.42,49.42,0,0,0,6-36.35h45.68Zm-26.5-46.6h-23.4a25.28,25.28,0,0,1-1.79-9l.28-4.9,10.54-10.54a38.15,38.15,0,0,1,14.37,24.4Zm151.3-7a7,7,0,0,1-7,7h-25a38.6,38.6,0,0,1,32.05-32.05Zm0-37.13a50.6,50.6,0,0,0-44.15,44.16h-95a50,50,0,0,0-18-32.93l13.1-13.1a29.88,29.88,0,0,0,0-42.26h0l-5.63-5.63a6,6,0,0,0-8-.46l-25.7,20.35V61.1A50.6,50.6,0,0,0,264,17h95.41a50.6,50.6,0,0,0,44.15,44.15Zm0-214.11a38.61,38.61,0,0,1-32.05-32h25a7,7,0,0,1,7,7Z" transform="translate(-96.44 -5)"/><path class="cls-1" d="M311.89,85.92A71.12,71.12,0,1,0,383,157h0A71.21,71.21,0,0,0,311.89,85.92Zm0,130.23A59.12,59.12,0,1,1,371,157h0a59.18,59.18,0,0,1-59.12,59.11Z" transform="translate(-96.44 -5)"/><path class="cls-1" d="M311.89,129.52a10.59,10.59,0,0,1,10.57,10.57,6,6,0,0,0,12,0,22.6,22.6,0,0,0-16.57-21.75v-3.92a6,6,0,0,0-12,0v3.92a22.57,22.57,0,0,0,6,44.32A10.57,10.57,0,0,1,312,183.8h-.24a10.59,10.59,0,0,1-10.45-10.57,6,6,0,1,0-12,0A22.61,22.61,0,0,0,305.89,195v4.67a6,6,0,0,0,12,0V195a22.57,22.57,0,0,0-6-44.33,10.57,10.57,0,0,1,0-21.14Z" transform="translate(-96.44 -5)"/></svg>