<svg id="Capa_1" data-name="Capa 1" xmlns="http://www.w3.org/2000/svg" viewBox="0 0 295 512"><defs><style>.cls-1{fill:#1a3d59;}</style></defs><title>Buy and Sell Airtime</title><path class="cls-1" d="M366,0H146a37.54,37.54,0,0,0-37.5,37.5v437A37.54,37.54,0,0,0,146,512H366a37.54,37.54,0,0,0,37.5-37.5V37.5A37.54,37.54,0,0,0,366,0Zm22.5,407H176a7.5,7.5,0,0,0,0,15H388.5v52.5A22.52,22.52,0,0,1,366,497H146a22.52,22.52,0,0,1-22.5-22.5V422H146a7.5,7.5,0,0,0,0-15H123.5V75h265Zm0-347h-265V37.5A22.52,22.52,0,0,1,146,15H366a22.52,22.52,0,0,1,22.5,22.5Z" transform="translate(-108.5)"/><path class="cls-1" d="M286,30H256a7.5,7.5,0,0,0,0,15h30a7.5,7.5,0,0,0,0-15Z" transform="translate(-108.5)"/><path class="cls-1" d="M256,437a22.5,22.5,0,1,0,22.5,22.5A22.52,22.52,0,0,0,256,437Zm0,30a7.5,7.5,0,1,1,7.5-7.5A7.5,7.5,0,0,1,256,467Z" transform="translate(-108.5)"/><circle class="cls-1" cx="117.5" cy="37.5" r="7.5"/><polygon class="cls-1" points="186.79 268.79 159.93 295.65 159.93 161.01 135.08 161.01 135.08 295.65 135.08 295.66 108.21 268.78 90.64 286.35 146.94 342.66 146.95 342.65 146.95 342.66 148.06 342.66 159.93 330.79 204.36 286.36 186.79 268.79"/></svg>