<svg id="Capa_1" data-name="Capa 1" xmlns="http://www.w3.org/2000/svg" viewBox="0 0 512 425.76"><defs><style>.cls-1{fill:#1a3d59;}</style></defs><title>Gift Card Trade</title><path class="cls-1" d="M509.41,208.74a32.37,32.37,0,0,0-17.75-17.48l-9-3.64V140.07a32.58,32.58,0,0,0-32.55-32.55H284.93L190.2,69.14a7.51,7.51,0,1,0-5.64,13.93l60.35,24.45H87.82l15.56-38.43a17.55,17.55,0,0,1,22.82-9.66l30.5,12.36a7.52,7.52,0,1,0,5.65-13.93L131.84,45.5a32.59,32.59,0,0,0-42.39,18L71.6,107.52H61.89a32.58,32.58,0,0,0-32.55,32.55v71.76L2.4,278.35a32.55,32.55,0,0,0,17.94,42.39l9,3.64v47.55a32.58,32.58,0,0,0,32.55,32.55H94a7.52,7.52,0,0,0,0-15H61.89a17.54,17.54,0,0,1-17.52-17.52V237.63h98.75c-17.34,13.71-40.49,37.42-50.25,71.58a7.51,7.51,0,0,0,14.45,4.13c10.14-35.49,37.54-58.86,53-69.65V389.45H124a7.52,7.52,0,1,0,0,15H227.07l74.66,30.25a7.6,7.6,0,0,0,2.82.55,7.52,7.52,0,0,0,2.83-14.48L267.1,404.48H424.18l-15.56,38.43a17.55,17.55,0,0,1-22.82,9.66l-50.5-20.46A7.51,7.51,0,1,0,329.66,446l50.5,20.46a32.55,32.55,0,0,0,42.39-17.95l17.85-44.07h9.71a32.58,32.58,0,0,0,32.55-32.55V300.17l26.94-66.52a32.35,32.35,0,0,0-.19-24.91ZM26,306.81A17.51,17.51,0,0,1,16.33,284l13-32.13v56.31ZM93.45,194.67c-1.29-3-2.21-7.87,4.57-14.91,3.13-3.25,7.09-5.32,11.66-4.63,9.08,1.37,21.08,11.87,33.78,29.57,4.41,6.15,8.25,12.26,11.21,17.26-28.8-2.82-55.73-14.37-61.22-27.29Zm66.85,7.84c-11.92-17.91-29.82-39.44-48.38-42.24-9.13-1.38-17.68,1.75-24.72,9-5.4,5.61-13.58,17.12-7.58,31.22,3.72,8.77,12.14,16.21,23.08,22.06H44.37V140.07a17.54,17.54,0,0,1,17.52-17.52h98.42v80ZM467.63,371.93a17.54,17.54,0,0,1-17.52,17.52H175.33V243.69c15.45,10.79,42.85,34.16,53,69.65a7.51,7.51,0,0,0,14.45-4.13c-9.76-34.16-32.91-57.87-50.25-71.58H467.63ZM181,222c2.94-5,6.74-11,11.11-17.11,12.74-17.79,24.77-28.34,33.89-29.72,4.57-.69,8.53,1.38,11.66,4.63,6.78,7,5.86,11.88,4.57,14.91C236.7,207.59,209.76,219.14,181,222Zm286.67.64H232.93c10.95-5.85,19.37-13.29,23.09-22,6-14.1-2.18-25.62-7.58-31.22-7-7.31-15.6-10.44-24.73-9.06-18.55,2.81-36.45,24.33-48.38,42.25v-80H450.11a17.54,17.54,0,0,1,17.52,17.52V222.6Zm28,5.41-13,32.13V203.83l3.35,1.36A17.51,17.51,0,0,1,495.67,228Z" transform="translate(0 -43.12)"/><path class="cls-1" d="M384.17,351.93v7.21a7.51,7.51,0,0,0,15,0v-7a24.72,24.72,0,0,0,12-6.11,25.93,25.93,0,0,0,7.84-18.64,23.36,23.36,0,0,0-5.21-15.12c-4.56-5.52-11.72-8.85-21.29-9.9-8.92-1-10.26-5.59-10.26-8.24,0-1.56.46-9.37,9.38-9.37,5.74,0,8.23,3.42,8.84,4.45a7.54,7.54,0,0,0,7,4.66c5.66,0,8.93-5.89,6.76-10.85a24.15,24.15,0,0,0-15.06-12.25v-7.35a7.52,7.52,0,1,0-15,0v7.33a22.13,22.13,0,0,0-12.37,8.87,26.78,26.78,0,0,0-4.51,14.51c0,9.49,6.19,21.25,23.63,23.17C404,318.74,404,325,404,327.38a10.88,10.88,0,0,1-3.11,7.69c-2.17,2.05-5.55,2.95-10,2.68-9.48-.58-11.63-6.49-11.85-7.16h0A7.52,7.52,0,1,0,364.7,335c.77,2.4,5.07,13.62,19.47,16.89Z" transform="translate(0 -43.12)"/></svg>