<svg id="Layer_1" data-name="Layer 1" xmlns="http://www.w3.org/2000/svg" viewBox="0 0 432 496"><defs><style>.cls-1{fill:#1a3d59;}</style></defs><title>P2P</title><path class="cls-1" d="M256,128V112H240v16H216v80h24v16h16V208a24,24,0,0,0,17.87-40A24,24,0,0,0,256,128Zm0,64H232V176h24a8,8,0,0,1,0,16Zm0-32H232V144h24a8,8,0,0,1,0,16Z" transform="translate(-32)"/><path class="cls-1" d="M440,320H400V240a16,16,0,0,0-16-16H315.83a88,88,0,0,0,10.46-16H400a64,64,0,0,0,0-128h-.36A88.12,88.12,0,0,0,312,0a87.08,87.08,0,0,0-64,27.71A87.08,87.08,0,0,0,184,0c-45.65,0-83.28,34.94-87.56,80H96a64,64,0,0,0,0,128h73.71a88,88,0,0,0,10.46,16H112a16,16,0,0,0-16,16v80H56a16,16,0,0,0-16,16V480a16,16,0,0,0,16,16h96a16,16,0,0,0,16-16V336a16,16,0,0,0-16-16H128v16h24v16H56V336H96a16,16,0,0,0,16-16V240h85.56A87.85,87.85,0,0,0,216,249.89V272H160v16h72V254.47a84.43,84.43,0,0,0,32,0V288h72V272H280V249.89A88.1,88.1,0,0,0,298.44,240H384v80a16,16,0,0,0,16,16h40v80H280V336h88V320H280a16,16,0,0,0-16,16V440a24,24,0,0,0,24,24h32v16H304v16H416V480H400V464h32a24,24,0,0,0,24-24V336A16,16,0,0,0,440,320ZM56,480V464h96v16Zm96-112v80H56V368ZM96,192a48,48,0,1,1,6.89-95.44l9.11.66V88a72.08,72.08,0,0,1,72-72,71.34,71.34,0,0,1,57.59,29L248,53.5,254.41,45A71.34,71.34,0,0,1,312,16c39.7,0,72,32.3,72,71.73l0,10.14,9.14-1.3A47.24,47.24,0,0,1,400,96a48,48,0,0,1,0,96H332.59a88,88,0,1,0-169.18,0Zm80-24a72,72,0,1,1,72,72A72.08,72.08,0,0,1,176,168ZM384,480H336V464h48Zm48-32H288a8,8,0,0,1-8-8v-8H440v8A8,8,0,0,1,432,448Z" transform="translate(-32)"/><path class="cls-1" d="M352,272h16v16H352Z" transform="translate(-32)"/><path class="cls-1" d="M128,272h16v16H128Z" transform="translate(-32)"/></svg>